# xmcd
#
# Track frame offsets:
#       150
#       17957
#       35764
#       53754
#
# Disc length: 956 seconds
#
# Revision: 0
# Processed by: cddbd v1.5.1PL2 Copyright (c) Steve Scherf et al.
# Submitted via: WaveLab 4.01
#
DISCID=2f03ba04
DTITLE=Blak Prophetz - What Is Rap - [The Remix EP]
DYEAR=2005
DGENRE=Rap
TTITLE0=What Is Rap (Dirty Remix-) 
TTITLE1=What Is Rap (Clean Remix)
TTITLE2=What Is Rap (LP Version)
TTITLE3=What Is Rap (Instrumental)
EXTD=
EXTT0=
EXTT1=
EXTT2=
EXTT3=
PLAYORDER=
